<svg width="194" height="56" viewBox="0 0 194 56" fill="none" xmlns="http://www.w3.org/2000/svg">
<g id="App Store">
<g id="Group">
<path id="BG" d="M192.768 49.5418C192.768 52.5261 190.301 54.9434 187.248 54.9434H6.6034C3.55256 54.9434 1.07617 52.5261 1.07617 49.5418V6.46535C1.07617 3.48245 3.55256 1.05664 6.6034 1.05664H187.247C190.301 1.05664 192.767 3.48245 192.767 6.46535L192.768 49.5418Z" fill="black"/>
<path id="Border" d="M186.667 1.12175C189.991 1.12175 192.696 3.759 192.696 7V49C192.696 52.241 189.991 54.8783 186.667 54.8783H7.17949C3.85538 54.8783 1.15051 52.241 1.15051 49V7C1.15051 3.759 3.85538 1.12175 7.17949 1.12175H186.667ZM186.667 3.8147e-06H7.17949C3.23256 3.8147e-06 0 3.15175 0 7V49C0 52.8482 3.23256 56 7.17949 56H186.667C190.614 56 193.846 52.8482 193.846 49V7C193.846 3.15175 190.614 3.8147e-06 186.667 3.8147e-06Z" fill="#A6A6A6"/>
<g id="Icon">
<g id="Vector">
<path d="M43.26 27.6977C43.2184 23.1855 47.0494 20.9903 47.2246 20.8881C45.0549 17.8039 41.692 17.3825 40.5103 17.3489C37.6859 17.0591 34.9462 18.9967 33.5074 18.9967C32.0399 18.9967 29.8243 17.3769 27.4365 17.4245C24.3636 17.4707 21.489 19.2053 19.9124 21.8989C16.6586 27.3911 19.0853 35.4621 22.2026 39.9015C23.762 42.0757 25.5841 44.5033 27.9692 44.4179C30.3025 44.3241 31.1741 42.9675 33.9899 42.9675C36.7798 42.9675 37.5983 44.4179 40.0307 44.3633C42.5349 44.3241 44.1115 42.1793 45.6163 39.9855C47.4184 37.4935 48.1421 35.0393 48.1708 34.9133C48.1119 34.8937 43.3074 33.1059 43.26 27.6977Z" fill="white"/>
<path d="M38.6652 14.4285C39.9201 12.8983 40.7788 10.8165 40.5405 8.70386C38.724 8.78226 36.4525 9.92886 35.1444 11.4255C33.987 12.7443 32.9532 14.9059 33.2202 16.9387C35.2607 17.0871 37.3556 15.9349 38.6652 14.4285Z" fill="white"/>
</g>
</g>
<g id="Download on the">
<path id="D" d="M70.4314 14.0127C70.4314 15.6605 69.9245 16.9009 68.9122 17.7339C67.9745 18.5025 66.642 18.8875 64.9161 18.8875C64.0603 18.8875 63.328 18.8511 62.7148 18.7783V9.77487C63.5146 9.64887 64.3762 9.58447 65.3066 9.58447C66.9507 9.58447 68.1899 9.93307 69.0256 10.6303C69.9618 11.4185 70.4314 12.5455 70.4314 14.0127ZM68.8447 14.0533C68.8447 12.9851 68.5546 12.1661 67.9745 11.5949C67.3944 11.0251 66.5473 10.7395 65.4316 10.7395C64.9577 10.7395 64.5542 10.7703 64.2197 10.8347V17.6793C64.4049 17.7073 64.7438 17.7199 65.2363 17.7199C66.3879 17.7199 67.2767 17.4077 67.9027 16.7833C68.5288 16.1589 68.8447 15.2489 68.8447 14.0533Z" fill="white"/>
<path id="o" d="M78.8444 15.4519C78.8444 16.4669 78.5472 17.2985 77.9527 17.9509C77.3295 18.6215 76.5039 18.9561 75.4729 18.9561C74.4793 18.9561 73.6881 18.6355 73.0979 17.9915C72.5092 17.3489 72.2148 16.5383 72.2148 15.5611C72.2148 14.5391 72.5178 13.7005 73.1266 13.0495C73.7355 12.3985 74.5539 12.0723 75.5849 12.0723C76.5785 12.0723 77.3769 12.3929 77.9814 13.0355C78.5558 13.6599 78.8444 14.4663 78.8444 15.4519ZM77.2836 15.4995C77.2836 14.8905 77.1486 14.3683 76.8801 13.9329C76.5642 13.4065 76.1147 13.1433 75.5303 13.1433C74.9258 13.1433 74.4663 13.4065 74.1504 13.9329C73.8805 14.3683 73.7469 14.8989 73.7469 15.5261C73.7469 16.1351 73.8819 16.6573 74.1504 17.0927C74.4764 17.6191 74.9301 17.8823 75.516 17.8823C76.0903 17.8823 76.5412 17.6149 76.8657 17.0787C77.1443 16.6349 77.2836 16.1085 77.2836 15.4995Z" fill="white"/>
<path id="w" d="M90.1255 12.2068L88.0076 18.8064H86.6291L85.7518 15.9406C85.5292 15.2252 85.3483 14.514 85.2076 13.8084H85.1803C85.0496 14.5336 84.8687 15.2434 84.6361 15.9406L83.7042 18.8064H82.3099L80.3184 12.2068H81.8648L82.6301 15.3442C82.8154 16.0862 82.9676 16.7932 83.0896 17.4624H83.1169C83.2289 16.9108 83.4141 16.208 83.6755 15.3582L84.6361 12.2082H85.8624L86.7828 15.291C87.0053 16.0428 87.1862 16.7666 87.3255 17.4638H87.3672C87.4691 16.7848 87.6228 16.061 87.8267 15.291L88.648 12.2082H90.1255V12.2068Z" fill="white"/>
<path id="n" d="M97.9253 18.8063H96.4205V15.0263C96.4205 13.8615 95.9667 13.2791 95.0564 13.2791C94.6098 13.2791 94.2494 13.4387 93.9694 13.7593C93.6923 14.0799 93.5516 14.4579 93.5516 14.8905V18.8049H92.0467V14.0925C92.0467 13.5129 92.0281 12.8843 91.9922 12.2039H93.3146L93.385 13.2357H93.4266C93.6018 12.9151 93.8632 12.6505 94.2063 12.4391C94.6141 12.1927 95.0707 12.0681 95.5704 12.0681C96.2022 12.0681 96.7278 12.2669 97.1456 12.6659C97.6654 13.1545 97.9253 13.8839 97.9253 14.8527V18.8063Z" fill="white"/>
<path id="l" d="M102.076 18.8063H100.572V9.17847H102.076V18.8063Z" fill="white"/>
<path id="o_2" d="M110.934 15.4519C110.934 16.4669 110.637 17.2985 110.043 17.9509C109.419 18.6215 108.592 18.9561 107.563 18.9561C106.568 18.9561 105.776 18.6355 105.188 17.9915C104.599 17.3489 104.305 16.5383 104.305 15.5611C104.305 14.5391 104.608 13.7005 105.216 13.0495C105.825 12.3985 106.644 12.0723 107.673 12.0723C108.668 12.0723 109.465 12.3929 110.071 13.0355C110.646 13.6599 110.934 14.4663 110.934 15.4519ZM109.372 15.4995C109.372 14.8905 109.237 14.3683 108.968 13.9329C108.654 13.4065 108.203 13.1433 107.62 13.1433C107.014 13.1433 106.555 13.4065 106.24 13.9329C105.97 14.3683 105.837 14.8989 105.837 15.5261C105.837 16.1351 105.972 16.6573 106.24 17.0927C106.566 17.6191 107.02 17.8823 107.606 17.8823C108.18 17.8823 108.63 17.6149 108.954 17.0787C109.234 16.6349 109.372 16.1085 109.372 15.4995Z" fill="white"/>
<path id="a" d="M118.217 18.8063H116.866L116.754 18.0461H116.712C116.25 18.6523 115.591 18.9561 114.735 18.9561C114.096 18.9561 113.579 18.7559 113.19 18.3583C112.837 17.9971 112.66 17.5477 112.66 17.0143C112.66 16.2079 113.005 15.5933 113.698 15.1677C114.39 14.7421 115.364 14.5335 116.617 14.5433V14.4201C116.617 13.5507 116.149 13.1167 115.212 13.1167C114.544 13.1167 113.955 13.2805 113.447 13.6053L113.141 12.6421C113.77 12.2627 114.547 12.0723 115.463 12.0723C117.232 12.0723 118.119 12.9823 118.119 14.8023V17.2327C118.119 17.8921 118.152 18.4171 118.217 18.8063ZM116.655 16.5383V15.5205C114.995 15.4925 114.165 15.9363 114.165 16.8505C114.165 17.1949 114.26 17.4525 114.454 17.6247C114.647 17.7969 114.894 17.8823 115.189 17.8823C115.519 17.8823 115.828 17.7801 116.109 17.5771C116.392 17.3727 116.566 17.1137 116.63 16.7959C116.646 16.7245 116.655 16.6377 116.655 16.5383Z" fill="white"/>
<path id="d" d="M126.768 18.8063H125.433L125.362 17.7465H125.321C124.894 18.5529 124.168 18.9561 123.147 18.9561C122.331 18.9561 121.652 18.6439 121.114 18.0195C120.575 17.3951 120.307 16.5845 120.307 15.5891C120.307 14.5209 120.598 13.6557 121.184 12.9949C121.751 12.3789 122.446 12.0709 123.273 12.0709C124.182 12.0709 124.818 12.3691 125.18 12.9669H125.209V9.17847H126.715V17.0283C126.715 17.6709 126.732 18.2631 126.768 18.8063ZM125.209 16.0231V14.9227C125.209 14.7323 125.194 14.5783 125.167 14.4607C125.082 14.1079 124.9 13.8111 124.623 13.5717C124.343 13.3323 124.005 13.2119 123.616 13.2119C123.055 13.2119 122.616 13.4289 122.292 13.8643C121.972 14.2997 121.81 14.8555 121.81 15.5345C121.81 16.1869 121.964 16.7161 122.272 17.1235C122.598 17.5575 123.038 17.7745 123.588 17.7745C124.082 17.7745 124.476 17.5939 124.777 17.2313C125.067 16.8967 125.209 16.4935 125.209 16.0231Z" fill="white"/>
<path id="o_3" d="M139.639 15.4519C139.639 16.4669 139.342 17.2985 138.748 17.9509C138.124 18.6215 137.3 18.9561 136.268 18.9561C135.276 18.9561 134.484 18.6355 133.893 17.9915C133.304 17.3489 133.01 16.5383 133.01 15.5611C133.01 14.5391 133.313 13.7005 133.922 13.0495C134.53 12.3985 135.349 12.0723 136.381 12.0723C137.373 12.0723 138.173 12.3929 138.776 13.0355C139.351 13.6599 139.639 14.4663 139.639 15.4519ZM138.08 15.4995C138.08 14.8905 137.945 14.3683 137.676 13.9329C137.359 13.4065 136.911 13.1433 136.325 13.1433C135.722 13.1433 135.263 13.4065 134.945 13.9329C134.675 14.3683 134.542 14.8989 134.542 15.5261C134.542 16.1351 134.677 16.6573 134.945 17.0927C135.271 17.6191 135.725 17.8823 136.311 17.8823C136.885 17.8823 137.338 17.6149 137.662 17.0787C137.939 16.6349 138.08 16.1085 138.08 15.4995Z" fill="white"/>
<path id="n_2" d="M147.731 18.8063H146.227V15.0263C146.227 13.8615 145.773 13.2791 144.862 13.2791C144.415 13.2791 144.055 13.4387 143.776 13.7593C143.497 14.0799 143.358 14.4579 143.358 14.8905V18.8049H141.852V14.0925C141.852 13.5129 141.835 12.8843 141.799 12.2039H143.12L143.19 13.2357H143.232C143.408 12.9151 143.67 12.6505 144.012 12.4391C144.421 12.1927 144.876 12.0681 145.377 12.0681C146.007 12.0681 146.533 12.2669 146.951 12.6659C147.472 13.1545 147.731 13.8839 147.731 14.8527V18.8063Z" fill="white"/>
<path id="t" d="M157.857 13.3056H156.2V16.5116C156.2 17.3264 156.494 17.7338 157.077 17.7338C157.347 17.7338 157.571 17.7114 157.748 17.6652L157.786 18.7782C157.489 18.8874 157.099 18.942 156.618 18.942C156.023 18.942 155.561 18.7656 155.226 18.4128C154.89 18.06 154.724 17.4664 154.724 16.6334V13.3056H153.734V12.2066H154.724V10.997L156.198 10.563V12.2052H157.855V13.3056H157.857Z" fill="white"/>
<path id="h" d="M165.824 18.8063H164.318V15.0543C164.318 13.8713 163.864 13.2791 162.955 13.2791C162.257 13.2791 161.78 13.6221 161.519 14.3081C161.475 14.4523 161.449 14.6287 161.449 14.8359V18.8049H159.945V9.17847H161.449V13.1559H161.477C161.951 12.4321 162.63 12.0709 163.511 12.0709C164.134 12.0709 164.649 12.2697 165.059 12.6687C165.568 13.1657 165.824 13.9049 165.824 14.8821V18.8063Z" fill="white"/>
<path id="e" d="M174.041 15.1942C174.041 15.4574 174.021 15.6786 173.985 15.8592H169.472C169.492 16.5116 169.708 17.0086 170.126 17.353C170.508 17.661 171 17.815 171.603 17.815C172.271 17.815 172.88 17.7114 173.428 17.5028L173.664 18.522C173.022 18.7936 172.267 18.9294 171.392 18.9294C170.344 18.9294 169.518 18.6284 168.921 18.0264C168.321 17.4244 168.023 16.6166 168.023 15.603C168.023 14.6076 168.301 13.7788 168.859 13.118C169.442 12.4124 170.23 12.0596 171.225 12.0596C172.199 12.0596 172.939 12.4124 173.438 13.118C173.842 13.678 174.041 14.371 174.041 15.1942ZM172.605 14.8148C172.617 14.3794 172.518 14.0042 172.314 13.6878C172.053 13.2804 171.655 13.076 171.116 13.076C170.625 13.076 170.225 13.2748 169.919 13.6738C169.669 13.9916 169.521 14.371 169.472 14.8148H172.605Z" fill="white"/>
</g>
<g id="App Store_2">
<path id="A" d="M77.0288 44.1056H73.7679L71.9816 38.633H65.7728L64.0713 44.1056H60.8965L67.0479 25.4744H70.8473L77.0288 44.1056ZM71.4431 36.337L69.8278 31.472C69.6569 30.975 69.3367 29.8046 68.8643 27.9622H68.8068C68.6187 28.7546 68.3158 29.925 67.8994 31.472L66.3127 36.337H71.4431Z" fill="white"/>
<path id="p" d="M92.8472 37.2233C92.8472 39.5081 92.214 41.3141 90.9476 42.6399C89.8132 43.8201 88.4046 44.4095 86.7231 44.4095C84.9082 44.4095 83.6044 43.7739 82.8103 42.5027H82.7529V49.5797H79.6916V35.0939C79.6916 33.6575 79.6528 32.1833 79.5781 30.6713H82.2704L82.4413 32.8007H82.4987C83.5197 31.1963 85.069 30.3955 87.1482 30.3955C88.7736 30.3955 90.1305 31.0213 91.2161 32.2743C92.3045 33.5287 92.8472 35.1779 92.8472 37.2233ZM89.7285 37.3325C89.7285 36.0249 89.4269 34.9469 88.821 34.0985C88.159 33.2137 87.2702 32.7713 86.156 32.7713C85.4007 32.7713 84.7143 33.0177 84.1012 33.5035C83.4866 33.9935 83.0846 34.6333 82.8965 35.4257C82.8017 35.7953 82.7543 36.0977 82.7543 36.3357V38.5757C82.7543 39.5529 83.0616 40.3775 83.6762 41.0509C84.2907 41.7243 85.0891 42.0603 86.0712 42.0603C87.2243 42.0603 88.1217 41.6263 88.7636 40.7611C89.4068 39.8945 89.7285 38.7521 89.7285 37.3325Z" fill="white"/>
<path id="p_2" d="M108.695 37.2233C108.695 39.5081 108.062 41.3141 106.794 42.6399C105.661 43.8201 104.253 44.4095 102.571 44.4095C100.756 44.4095 99.4526 43.7739 98.6599 42.5027H98.6025V49.5797H95.5412V35.0939C95.5412 33.6575 95.5024 32.1833 95.4277 30.6713H98.12L98.2909 32.8007H98.3483C99.3678 31.1963 100.917 30.3955 102.998 30.3955C104.622 30.3955 105.979 31.0213 107.067 32.2743C108.151 33.5287 108.695 35.1779 108.695 37.2233ZM105.577 37.3325C105.577 36.0249 105.274 34.9469 104.668 34.0985C104.006 33.2137 103.12 32.7713 102.004 32.7713C101.247 32.7713 100.563 33.0177 99.9479 33.5035C99.3334 33.9935 98.9328 34.6333 98.7447 35.4257C98.6513 35.7953 98.6025 36.0977 98.6025 36.3357V38.5757C98.6025 39.5529 98.9098 40.3775 99.5215 41.0509C100.136 41.7229 100.934 42.0603 101.919 42.0603C103.072 42.0603 103.97 41.6263 104.612 40.7611C105.255 39.8945 105.577 38.7521 105.577 37.3325Z" fill="white"/>
<path id="S" d="M126.415 38.8808C126.415 40.4656 125.851 41.755 124.718 42.7504C123.473 43.8382 121.74 44.3814 119.513 44.3814C117.457 44.3814 115.808 43.995 114.561 43.2208L115.27 40.733C116.614 41.5254 118.089 41.923 119.695 41.923C120.848 41.923 121.746 41.6682 122.391 41.1614C123.032 40.6546 123.353 39.9742 123.353 39.1258C123.353 38.3698 123.088 37.7328 122.558 37.2162C122.032 36.6996 121.151 36.2194 119.922 35.7756C116.577 34.559 114.905 32.7768 114.905 30.4332C114.905 28.9016 115.491 27.6458 116.664 26.6686C117.833 25.69 119.392 25.2014 121.342 25.2014C123.081 25.2014 124.526 25.4968 125.679 26.0862L124.913 28.5194C123.836 27.9482 122.619 27.6626 121.256 27.6626C120.179 27.6626 119.338 27.9216 118.735 28.4368C118.225 28.8974 117.969 29.4588 117.969 30.1238C117.969 30.8602 118.261 31.4692 118.847 31.948C119.356 32.3904 120.283 32.8692 121.627 33.3858C123.271 34.0312 124.478 34.7858 125.255 35.651C126.029 36.5134 126.415 37.5928 126.415 38.8808Z" fill="white"/>
<path id="t_2" d="M136.536 32.9111H133.162V39.4337C133.162 41.0927 133.756 41.9215 134.948 41.9215C135.495 41.9215 135.949 41.8753 136.308 41.7829L136.392 44.0495C135.789 44.2693 134.995 44.3799 134.012 44.3799C132.803 44.3799 131.858 44.0201 131.176 43.3019C130.497 42.5823 130.155 41.3755 130.155 39.6801V32.9083H128.145V30.6683H130.155V28.2085L133.162 27.3237V30.6683H136.536V32.9111Z" fill="white"/>
<path id="o_4" d="M151.762 37.2777C151.762 39.3427 151.156 41.0381 149.947 42.3639C148.679 43.7289 146.996 44.4093 144.898 44.4093C142.876 44.4093 141.267 43.7555 140.066 42.4479C138.866 41.1403 138.266 39.4897 138.266 37.5003C138.266 35.4185 138.883 33.7133 140.122 32.3875C141.359 31.0603 143.027 30.3967 145.125 30.3967C147.147 30.3967 148.774 31.0505 150.001 32.3595C151.176 33.6293 151.762 35.2687 151.762 37.2777ZM148.585 37.3743C148.585 36.1353 148.314 35.0727 147.764 34.1865C147.122 33.1141 146.205 32.5793 145.016 32.5793C143.785 32.5793 142.85 33.1155 142.209 34.1865C141.659 35.0741 141.387 36.1535 141.387 37.4303C141.387 38.6693 141.659 39.7319 142.209 40.6167C142.871 41.6891 143.795 42.2239 144.988 42.2239C146.157 42.2239 147.075 41.6779 147.737 40.5887C148.301 39.6857 148.585 38.6119 148.585 37.3743Z" fill="white"/>
<path id="r" d="M161.712 33.2963C161.409 33.2417 161.086 33.2137 160.747 33.2137C159.67 33.2137 158.837 33.6099 158.251 34.4037C157.741 35.1037 157.486 35.9885 157.486 37.0567V44.1057H154.426L154.455 34.9021C154.455 33.3537 154.416 31.9439 154.34 30.6727H157.006L157.118 33.2431H157.203C157.526 32.3597 158.036 31.6485 158.734 31.1151C159.416 30.6349 160.152 30.3955 160.946 30.3955C161.229 30.3955 161.485 30.4151 161.712 30.4501V33.2963Z" fill="white"/>
<path id="e_2" d="M175.404 36.7527C175.404 37.2875 175.368 37.7383 175.292 38.1065H166.108C166.143 39.4337 166.587 40.4487 167.44 41.1487C168.214 41.7745 169.215 42.0881 170.444 42.0881C171.804 42.0881 173.044 41.8767 174.16 41.4525L174.64 43.5245C173.336 44.0789 171.797 44.3547 170.02 44.3547C167.884 44.3547 166.207 43.7415 164.986 42.5165C163.768 41.2915 163.158 39.6465 163.158 37.5829C163.158 35.5571 163.725 33.8701 164.861 32.5247C166.05 31.0883 167.657 30.3701 169.679 30.3701C171.664 30.3701 173.168 31.0883 174.189 32.5247C174.997 33.6657 175.404 35.0769 175.404 36.7527ZM172.484 35.9785C172.504 35.0937 172.305 34.3293 171.89 33.6839C171.36 32.8537 170.546 32.4393 169.45 32.4393C168.449 32.4393 167.635 32.8439 167.014 33.6559C166.504 34.3013 166.201 35.0755 166.108 35.9771H172.484V35.9785Z" fill="white"/>
</g>
</g>
</g>
</svg>
