
<svg width="162" height="167" viewBox="0 0 162 167" fill="none" xmlns="http://www.w3.org/2000/svg">
<g filter="url(#filter0_ddd_1_2812)">
<path d="M55 66.7227L71.2021 111.845L90.7897 112.183L107.674 102.262L99.6014 55L55 66.7227ZM94.8871 72.3875L95.8995 78.325L98.9222 96.1266L88.2134 102.381L88.2034 102.384L75.8084 102.198L72.6121 93.3135L78.2699 91.8264L79.9301 96.4342L86.658 96.4877L92.4991 93.1307L91.289 85.0439L71.529 90.2943L69.5549 85.0671L90.3024 79.3504L89.211 73.485L67.4361 79.2735L65.6636 74.0158L93.9018 66.5939L94.8871 72.3875Z" stroke="url(#paint0_linear_1_2812)" stroke-width="2" stroke-miterlimit="10"/>
</g>
<defs>
<filter id="filter0_ddd_1_2812" x="0.769882" y="0.835373" width="160.927" height="165.273" filterUnits="userSpaceOnUse" color-interpolation-filters="sRGB">
<feFlood flood-opacity="0" result="BackgroundImageFix"/>
<feColorMatrix in="SourceAlpha" type="matrix" values="0 0 0 0 0 0 0 0 0 0 0 0 0 0 0 0 0 0 127 0" result="hardAlpha"/>
<feOffset/>
<feGaussianBlur stdDeviation="3.78"/>
<feColorMatrix type="matrix" values="0 0 0 0 1 0 0 0 0 0.184314 0 0 0 0 0.847059 0 0 0 1 0"/>
<feBlend mode="normal" in2="BackgroundImageFix" result="effect1_dropShadow_1_2812"/>
<feColorMatrix in="SourceAlpha" type="matrix" values="0 0 0 0 0 0 0 0 0 0 0 0 0 0 0 0 0 0 127 0" result="hardAlpha"/>
<feOffset/>
<feGaussianBlur stdDeviation="7.56"/>
<feColorMatrix type="matrix" values="0 0 0 0 1 0 0 0 0 0.184314 0 0 0 0 0.847059 0 0 0 1 0"/>
<feBlend mode="normal" in2="effect1_dropShadow_1_2812" result="effect2_dropShadow_1_2812"/>
<feColorMatrix in="SourceAlpha" type="matrix" values="0 0 0 0 0 0 0 0 0 0 0 0 0 0 0 0 0 0 127 0" result="hardAlpha"/>
<feOffset/>
<feGaussianBlur stdDeviation="26.46"/>
<feColorMatrix type="matrix" values="0 0 0 0 1 0 0 0 0 0.184314 0 0 0 0 0.847059 0 0 0 1 0"/>
<feBlend mode="normal" in2="effect2_dropShadow_1_2812" result="effect3_dropShadow_1_2812"/>
<feBlend mode="normal" in="SourceGraphic" in2="effect3_dropShadow_1_2812" result="shape"/>
</filter>
<linearGradient id="paint0_linear_1_2812" x1="61.7203" y1="56.5466" x2="101.471" y2="50.9048" gradientUnits="userSpaceOnUse">
<stop stop-color="#EAAAFF"/>
<stop offset="1" stop-color="#B5ACFF"/>
</linearGradient>
</defs>
</svg>