<svg width="24" height="24" viewBox="0 0 24 24" fill="none" xmlns="http://www.w3.org/2000/svg">
<mask id="mask0_852_1513" style="mask-type:alpha" maskUnits="userSpaceOnUse" x="0" y="0" width="24" height="24">
<path d="M0.171875 0.84668L23.3057 0.84668L23.3057 23.9805L0.171875 23.9805L0.171875 0.84668Z" fill="white"/>
</mask>
<g mask="url(#mask0_852_1513)">
<path fill-rule="evenodd" clip-rule="evenodd" d="M0.171875 12.4782C0.171875 18.2288 4.34849 23.0108 9.81096 23.9805L9.81096 15.6263L6.91923 15.6263L6.91923 12.4136L9.81096 12.4136L9.81096 9.84284C9.81096 6.95111 11.6742 5.34524 14.3095 5.34524C15.1443 5.34524 16.0446 5.47344 16.8793 5.60164L16.8793 8.55795L15.4016 8.55795C13.9876 8.55795 13.6666 9.26449 13.6666 10.1648L13.6666 12.4136L16.7511 12.4136L16.2373 15.6263L13.6666 15.6263L13.6666 23.9805C19.1291 23.0108 23.3057 18.2298 23.3057 12.4782C23.3057 6.0807 18.1006 0.84668 11.7388 0.84668C5.37698 0.84668 0.171875 6.0807 0.171875 12.4782Z" fill="white"/>
</g>
</svg>
