<svg width="195" height="56" viewBox="0 0 195 56" fill="none" xmlns="http://www.w3.org/2000/svg">
<g id="Google Play">
<g id="Group">
<path id="BG" d="M187.512 56H8.02519C4.07827 56 0.845703 52.8483 0.845703 49V7C0.845703 3.15176 4.07827 5.72205e-06 8.02519 5.72205e-06H187.512C191.459 5.72205e-06 194.692 3.15176 194.692 7V49C194.692 52.8483 191.459 56 187.512 56Z" fill="black"/>
<path id="Border" d="M187.512 1.12176C190.836 1.12176 193.541 3.759 193.541 7V49C193.541 52.241 190.836 54.8783 187.512 54.8783H8.02519C4.70109 54.8783 1.99622 52.241 1.99622 49V7C1.99622 3.759 4.70109 1.12176 8.02519 1.12176H187.512ZM187.512 5.72205e-06H8.02519C4.07827 5.72205e-06 0.845703 3.15176 0.845703 7V49C0.845703 52.8483 4.07827 56 8.02519 56H187.512C191.459 56 194.692 52.8483 194.692 49V7C194.692 3.15176 191.459 5.72205e-06 187.512 5.72205e-06Z" fill="#A6A6A6"/>
<g id="Icon">
<path id="Vector" d="M15.83 10.5541C15.4082 10.9846 15.1641 11.6549 15.1641 12.5229V43.4839C15.1641 44.3519 15.4082 45.0221 15.83 45.4526L15.9341 45.5471L33.7284 28.2046V27.7951L15.9341 10.4526L15.83 10.5541Z" fill="url(#paint0_linear_3785_15775)"/>
<path id="Vector_2" d="M39.6534 33.9885L33.7285 28.2048V27.7953L39.6606 22.0115L39.7934 22.0868L46.8185 25.984C48.8234 27.09 48.8234 28.91 46.8185 30.023L39.7934 33.9133L39.6534 33.9885Z" fill="url(#paint1_linear_3785_15775)"/>
<path id="Vector_3" d="M39.7934 33.9132L33.7285 28L15.8301 45.4527C16.496 46.1352 17.5819 46.2175 18.8167 45.535L39.7934 33.9132Z" fill="url(#paint2_linear_3785_15775)"/>
<path id="Vector_4" d="M39.7934 22.0868L18.8167 10.465C17.5819 9.78951 16.496 9.87175 15.8301 10.5543L33.7285 28L39.7934 22.0868Z" fill="url(#paint3_linear_3785_15775)"/>
</g>
<g id="GET IT ON">
<path id="G" d="M68.9333 14.3411C68.9333 15.5101 68.5744 16.4463 67.8672 17.1446C67.0541 17.9723 65.9951 18.3888 64.6974 18.3888C63.4572 18.3888 62.3982 17.9653 61.5295 17.1306C60.659 16.2836 60.2246 15.2441 60.2246 13.9998C60.2246 12.7556 60.659 11.7161 61.5295 10.8761C62.3982 10.0343 63.4572 9.61084 64.6974 9.61084C65.3149 9.61084 65.9036 9.73509 66.4654 9.96609C67.0254 10.1988 67.4813 10.5138 67.8115 10.9023L67.0613 11.6408C66.4851 10.9776 65.7008 10.6503 64.6974 10.6503C63.7928 10.6503 63.0085 10.9583 62.3426 11.5796C61.6838 12.2026 61.3536 13.0093 61.3536 13.9998C61.3536 14.9903 61.6838 15.8041 62.3426 16.4271C63.0085 17.0413 63.7928 17.3563 64.6974 17.3563C65.6577 17.3563 66.4654 17.0413 67.1026 16.4201C67.5226 16.0088 67.7613 15.4418 67.8241 14.7173H64.6974V13.7058H68.8687C68.919 13.9246 68.9333 14.1363 68.9333 14.3411Z" fill="white" stroke="white" stroke-width="0.16" stroke-miterlimit="10"/>
<path id="E" d="M75.5509 10.8342H71.6327V13.4942H75.165V14.5057H71.6327V17.1657H75.5509V18.1965H70.5234V9.80347H75.5509V10.8342Z" fill="white" stroke="white" stroke-width="0.16" stroke-miterlimit="10"/>
<path id="T" d="M80.2215 18.1965H79.1123V10.8342H76.709V9.80347H82.6267V10.8342H80.2215V18.1965Z" fill="white" stroke="white" stroke-width="0.16" stroke-miterlimit="10"/>
<path id="I" d="M86.9082 18.1965V9.80347H88.0156V18.1965H86.9082Z" fill="white" stroke="white" stroke-width="0.16" stroke-miterlimit="10"/>
<path id="T_2" d="M92.9247 18.1965H91.8244V10.8342H89.4121V9.80347H95.337V10.8342H92.9247V18.1965Z" fill="white" stroke="white" stroke-width="0.16" stroke-miterlimit="10"/>
<path id="O" d="M106.542 17.1166C105.693 17.9653 104.641 18.3888 103.387 18.3888C102.125 18.3888 101.073 17.9653 100.224 17.1166C99.3769 16.2696 98.9551 15.2301 98.9551 13.9998C98.9551 12.7696 99.3769 11.7301 100.224 10.8831C101.073 10.0343 102.125 9.61084 103.387 9.61084C104.634 9.61084 105.686 10.0343 106.535 10.8901C107.389 11.7441 107.811 12.7766 107.811 13.9998C107.811 15.2301 107.389 16.2696 106.542 17.1166ZM101.044 16.4131C101.683 17.0413 102.46 17.3563 103.387 17.3563C104.306 17.3563 105.09 17.0413 105.722 16.4131C106.359 15.7848 106.682 14.9781 106.682 13.9998C106.682 13.0216 106.359 12.2148 105.722 11.5866C105.09 10.9583 104.306 10.6433 103.387 10.6433C102.46 10.6433 101.683 10.9583 101.044 11.5866C100.407 12.2148 100.084 13.0216 100.084 13.9998C100.084 14.9781 100.407 15.7848 101.044 16.4131Z" fill="white" stroke="white" stroke-width="0.16" stroke-miterlimit="10"/>
<path id="N" d="M109.367 18.1965V9.80347H110.713L114.899 16.331H114.947L114.899 14.7175V9.80347H116.006V18.1965H114.851L110.467 11.347H110.419L110.467 12.9675V18.1965H109.367Z" fill="white" stroke="white" stroke-width="0.16" stroke-miterlimit="10"/>
</g>
<g id="Google Play_2">
<path id="Google Play_3" d="M98.681 30.4535C95.3085 30.4535 92.5533 32.956 92.5533 36.4088C92.5533 39.8335 95.3085 42.3622 98.681 42.3622C102.061 42.3622 104.816 39.8335 104.816 36.4088C104.816 32.956 102.061 30.4535 98.681 30.4535ZM98.681 40.0172C96.8305 40.0172 95.2385 38.528 95.2385 36.4088C95.2385 34.2615 96.8305 32.7985 98.681 32.7985C100.532 32.7985 102.131 34.2615 102.131 36.4088C102.131 38.528 100.532 40.0172 98.681 40.0172ZM85.311 30.4535C81.9313 30.4535 79.1833 32.956 79.1833 36.4088C79.1833 39.8335 81.9313 42.3622 85.311 42.3622C88.689 42.3622 91.4387 39.8335 91.4387 36.4088C91.4387 32.956 88.689 30.4535 85.311 30.4535ZM85.311 40.0172C83.4587 40.0172 81.8613 38.528 81.8613 36.4088C81.8613 34.2615 83.4587 32.7985 85.311 32.7985C87.1615 32.7985 88.7536 34.2615 88.7536 36.4088C88.7536 38.528 87.1615 40.0172 85.311 40.0172ZM69.4013 32.2788V34.8093H75.599C75.4177 36.2233 74.9331 37.2628 74.19 37.9873C73.2854 38.8623 71.8764 39.8335 69.4013 39.8335C65.5872 39.8335 62.6005 36.8323 62.6005 33.1135C62.6005 29.3948 65.5872 26.3935 69.4013 26.3935C71.4636 26.3935 72.9641 27.1793 74.0715 28.1978L75.9005 26.4145C74.3515 24.9725 72.291 23.8648 69.4013 23.8648C64.171 23.8648 59.7754 28.014 59.7754 33.1135C59.7754 38.213 64.171 42.3622 69.4013 42.3622C72.2282 42.3622 74.3515 41.4592 76.0208 39.7652C77.7313 38.0975 78.2644 35.7525 78.2644 33.859C78.2644 33.271 78.2141 32.7303 78.1244 32.2788H69.4013ZM134.458 34.2405C133.954 32.9088 132.398 30.4535 129.228 30.4535C126.087 30.4535 123.472 32.8668 123.472 36.4088C123.472 39.7442 126.06 42.3622 129.529 42.3622C132.335 42.3622 133.954 40.6945 134.62 39.7232L132.538 38.3705C131.843 39.361 130.897 40.0172 129.529 40.0172C128.171 40.0172 127.196 39.41 126.572 38.213L134.74 34.9177L134.458 34.2405ZM126.13 36.2232C126.06 33.9273 127.959 32.7513 129.319 32.7513C130.386 32.7513 131.29 33.271 131.592 34.0148L126.13 36.2232ZM119.491 42H122.176V24.5H119.491V42ZM115.093 31.78H115.004C114.4 31.0835 113.25 30.4535 111.793 30.4535C108.734 30.4535 105.938 33.0715 105.938 36.428C105.938 39.7652 108.734 42.3622 111.793 42.3622C113.25 42.3622 114.4 41.727 115.004 41.0095H115.093V41.8635C115.093 44.1402 113.846 45.3635 111.834 45.3635C110.193 45.3635 109.176 44.2085 108.756 43.2372L106.42 44.1875C107.094 45.766 108.876 47.7085 111.834 47.7085C114.982 47.7085 117.638 45.9025 117.638 41.5082V30.8158H115.093V31.78ZM112.022 40.0172C110.172 40.0172 108.623 38.507 108.623 36.428C108.623 34.3298 110.172 32.7985 112.022 32.7985C113.846 32.7985 115.284 34.3298 115.284 36.428C115.284 38.507 113.846 40.0172 112.022 40.0172ZM147.029 24.5H140.607V42H143.285V35.3693H147.029C150.004 35.3693 152.92 33.271 152.92 29.9338C152.92 26.5983 149.996 24.5 147.029 24.5ZM147.099 32.935H143.285V26.9343H147.099C149.099 26.9343 150.24 28.553 150.24 29.9338C150.24 31.2883 149.099 32.935 147.099 32.935ZM163.654 30.4203C161.719 30.4203 159.707 31.2533 158.879 33.0995L161.256 34.0708C161.767 33.0995 162.708 32.7845 163.702 32.7845C165.091 32.7845 166.5 33.5983 166.522 35.035V35.2188C166.037 34.9458 165 34.5415 163.724 34.5415C161.164 34.5415 158.556 35.9153 158.556 38.479C158.556 40.824 160.653 42.3342 163.009 42.3342C164.811 42.3342 165.806 41.5415 166.43 40.6192H166.522V41.972H169.108V35.259C169.108 32.1563 166.732 30.4203 163.654 30.4203ZM163.33 40.0103C162.455 40.0103 161.234 39.5867 161.234 38.528C161.234 37.1735 162.756 36.6537 164.074 36.6537C165.253 36.6537 165.806 36.9075 166.522 37.2418C166.312 38.8622 164.881 40.0103 163.33 40.0103ZM178.531 30.8035L175.453 38.3897H175.361L172.179 30.8035H169.291L174.073 41.405L171.345 47.3042H174.143L181.511 30.8035H178.531ZM154.392 42H157.077V24.5H154.392V42Z" fill="white"/>
</g>
</g>
</g>
<defs>
<linearGradient id="paint0_linear_3785_15775" x1="32.1485" y1="43.8063" x2="8.66066" y2="19.7162" gradientUnits="userSpaceOnUse">
<stop stop-color="#00A0FF"/>
<stop offset="0.0066" stop-color="#00A1FF"/>
<stop offset="0.2601" stop-color="#00BEFF"/>
<stop offset="0.5122" stop-color="#00D2FF"/>
<stop offset="0.7604" stop-color="#00DFFF"/>
<stop offset="1" stop-color="#00E3FF"/>
</linearGradient>
<linearGradient id="paint1_linear_3785_15775" x1="49.4292" y1="27.9981" x2="14.6849" y2="27.9981" gradientUnits="userSpaceOnUse">
<stop stop-color="#FFE000"/>
<stop offset="0.4087" stop-color="#FFBD00"/>
<stop offset="0.7754" stop-color="#FFA500"/>
<stop offset="1" stop-color="#FF9C00"/>
</linearGradient>
<linearGradient id="paint2_linear_3785_15775" x1="36.4955" y1="24.7854" x2="4.6441" y2="-7.88268" gradientUnits="userSpaceOnUse">
<stop stop-color="#FF3A44"/>
<stop offset="1" stop-color="#C31162"/>
</linearGradient>
<linearGradient id="paint3_linear_3785_15775" x1="11.3247" y1="55.7533" x2="25.5477" y2="41.1657" gradientUnits="userSpaceOnUse">
<stop stop-color="#32A071"/>
<stop offset="0.0685" stop-color="#2DA771"/>
<stop offset="0.4762" stop-color="#15CF74"/>
<stop offset="0.8009" stop-color="#06E775"/>
<stop offset="1" stop-color="#00F076"/>
</linearGradient>
</defs>
</svg>
