<svg width="23" height="23" viewBox="0 0 23 23" fill="none" xmlns="http://www.w3.org/2000/svg">
    <path fill-rule="evenodd" clip-rule="evenodd"
          d="M6.67221 0.640899C7.8573 0.586342 8.23515 0.574219 11.2539 0.574219C14.2727 0.574219 14.6506 0.587353 15.8346 0.640899C17.0187 0.694444 17.8269 0.883371 18.5341 1.15716C19.2747 1.43701 19.9465 1.87447 20.5022 2.44024C21.068 2.9949 21.5044 3.66574 21.7833 4.4073C22.0581 5.11451 22.246 5.92275 22.3005 7.1048C22.3551 8.2919 22.3672 8.66975 22.3672 11.6875C22.3672 14.7063 22.3541 15.0841 22.3005 16.2692C22.247 17.4513 22.0581 18.2595 21.7833 18.9667C21.5044 19.7084 21.0672 20.3803 20.5022 20.9358C19.9465 21.5016 19.2747 21.938 18.5341 22.2169C17.8269 22.4917 17.0187 22.6796 15.8366 22.7341C14.6505 22.7887 14.2727 22.8008 11.2539 22.8008C8.23515 22.8008 7.8573 22.7877 6.67221 22.7341C5.49016 22.6806 4.68192 22.4917 3.97471 22.2169C3.23307 21.938 2.56112 21.5008 2.00564 20.9358C1.44025 20.3808 1.00273 19.7092 0.723568 18.9677C0.449777 18.2605 0.261861 17.4523 0.207305 16.2702C0.152749 15.0831 0.140625 14.7053 0.140625 11.6875C0.140625 8.66874 0.153759 8.29089 0.207305 7.10682C0.260851 5.92275 0.449777 5.11451 0.723568 4.4073C1.00314 3.66582 1.441 2.9942 2.00665 2.43923C2.56134 1.87397 3.23262 1.43645 3.9737 1.15716C4.68091 0.883371 5.48915 0.695455 6.6712 0.640899H6.67221ZM15.7447 2.64129C14.5728 2.58775 14.2212 2.57663 11.2539 2.57663C8.28667 2.57663 7.93509 2.58775 6.76314 2.64129C5.67909 2.6908 5.09109 2.87164 4.6991 3.0242C4.18081 3.22626 3.81003 3.4657 3.42107 3.85466C3.05235 4.21337 2.7686 4.65005 2.5906 5.13269C2.43805 5.52469 2.2572 6.11268 2.2077 7.19673C2.15415 8.36868 2.14304 8.72027 2.14304 11.6875C2.14304 14.6548 2.15415 15.0064 2.2077 16.1783C2.2572 17.2624 2.43805 17.8503 2.5906 18.2423C2.76841 18.7243 3.05231 19.1617 3.42107 19.5204C3.77973 19.8891 4.21719 20.173 4.6991 20.3508C5.09109 20.5034 5.67909 20.6842 6.76314 20.7337C7.93509 20.7873 8.28566 20.7984 11.2539 20.7984C14.2222 20.7984 14.5728 20.7873 15.7447 20.7337C16.8288 20.6842 17.4168 20.5034 17.8087 20.3508C18.327 20.1488 18.6978 19.9093 19.0868 19.5204C19.4555 19.1617 19.7394 18.7243 19.9172 18.2423C20.0698 17.8503 20.2506 17.2624 20.3001 16.1783C20.3537 15.0064 20.3648 14.6548 20.3648 11.6875C20.3648 8.72027 20.3537 8.36868 20.3001 7.19673C20.2506 6.11268 20.0698 5.52469 19.9172 5.13269C19.7152 4.61441 19.4757 4.24363 19.0868 3.85466C18.728 3.48597 18.2914 3.20222 17.8087 3.0242C17.4168 2.87164 16.8288 2.6908 15.7447 2.64129ZM9.83445 15.1134C10.6272 15.4434 11.5099 15.488 12.3318 15.2394C13.1538 14.9909 13.8639 14.4647 14.341 13.7508C14.8181 13.0368 15.0325 12.1794 14.9476 11.3249C14.8628 10.4704 14.4839 9.67194 13.8757 9.06579C13.4879 8.67832 13.0191 8.38163 12.503 8.19708C11.9868 8.01253 11.4362 7.94472 10.8907 7.99852C10.3452 8.05233 9.81844 8.22641 9.3483 8.50823C8.87816 8.79006 8.47635 9.17262 8.1718 9.62838C7.86726 10.0841 7.66755 10.6017 7.58706 11.1439C7.50656 11.6861 7.54729 12.2394 7.7063 12.764C7.8653 13.2886 8.13864 13.7714 8.50664 14.1776C8.87463 14.5839 9.32811 14.9035 9.83445 15.1134ZM7.21474 7.64834C7.74518 7.11791 8.37489 6.69714 9.06793 6.41008C9.76098 6.12301 10.5038 5.97526 11.2539 5.97526C12.0041 5.97526 12.7469 6.12301 13.4399 6.41008C14.133 6.69714 14.7627 7.11791 15.2931 7.64834C15.8235 8.17877 16.2443 8.80849 16.5314 9.50153C16.8184 10.1946 16.9662 10.9374 16.9662 11.6875C16.9662 12.4377 16.8184 13.1805 16.5314 13.8735C16.2443 14.5665 15.8235 15.1963 15.2931 15.7267C14.2218 16.798 12.7689 17.3998 11.2539 17.3998C9.73894 17.3998 8.286 16.798 7.21474 15.7267C6.14349 14.6554 5.54166 13.2025 5.54166 11.6875C5.54166 10.1725 6.14349 8.71959 7.21474 7.64834ZM18.2331 6.82595C18.3645 6.70196 18.4697 6.55285 18.5425 6.38746C18.6153 6.22206 18.6542 6.04375 18.6568 5.86307C18.6594 5.68239 18.6258 5.50301 18.5579 5.33557C18.4899 5.16813 18.3891 5.01601 18.2613 4.88824C18.1335 4.76046 17.9814 4.65963 17.814 4.59169C17.6465 4.52376 17.4672 4.49012 17.2865 4.49275C17.1058 4.49538 16.9275 4.53424 16.7621 4.60703C16.5967 4.67981 16.4476 4.78504 16.3236 4.91649C16.0825 5.17212 15.9504 5.51168 15.9556 5.86307C15.9607 6.21446 16.1025 6.55002 16.351 6.79852C16.5995 7.04701 16.9351 7.18888 17.2865 7.19401C17.6379 7.19913 17.9774 7.0671 18.2331 6.82595Z"
          fill="white"/>
</svg>
