<svg width="283" height="286" viewBox="0 0 283 286" fill="none" xmlns="http://www.w3.org/2000/svg">
<g filter="url(#filter0_ddddd_1_1193)">
<path d="M146.681 116.564C145.968 116.426 145.219 116.469 144.533 116.713L122.925 124.522C121.529 125.028 120.472 126.292 120.18 127.79L116.085 148.804C115.789 150.322 116.298 151.871 117.402 152.864L121.888 156.89C124.104 158.625 124.983 158.796 126.096 159.013C129.748 159.725 132.284 157.844 133.057 153.876L137.282 132.195C137.312 132.039 137.282 131.878 137.197 131.747C137.112 131.616 136.98 131.527 136.83 131.497L134.389 131.022C134.314 131.006 134.237 131.006 134.162 131.022C134.088 131.037 134.016 131.068 133.953 131.113C133.889 131.157 133.835 131.214 133.793 131.28C133.751 131.347 133.722 131.421 133.708 131.498L129.487 153.16C129.14 154.941 127.023 156.336 124.44 154.299L119.748 150.085C119.663 150.014 119.599 149.919 119.562 149.812C119.526 149.705 119.519 149.589 119.542 149.478L123.633 128.484C123.68 128.241 123.837 128.062 124.056 127.978L145.666 120.17C145.768 120.128 145.879 120.117 145.986 120.138C146.093 120.159 146.192 120.211 146.271 120.288L163.369 135.639C163.54 135.799 163.618 136.024 163.574 136.247L159.48 157.26C159.436 157.483 159.276 157.683 159.08 157.75L137.447 165.574C137.343 165.606 137.234 165.612 137.129 165.591C137.024 165.571 136.925 165.524 136.841 165.456L132.457 161.429C132.4 161.365 132.327 161.319 132.245 161.296C132.164 161.272 132.078 161.273 131.996 161.297C130.452 161.837 130.178 161.889 128.798 162.103C128.466 162.143 127.938 162.251 128.804 163.008L134.495 168.235C135.049 168.721 135.713 169.061 136.416 169.198C137.139 169.339 137.881 169.273 138.577 169.031L160.211 161.206C161.607 160.7 162.66 159.456 162.956 157.937L167.047 136.944C167.343 135.426 166.834 133.877 165.73 132.884L148.617 117.509C148.071 117.024 147.395 116.704 146.681 116.564ZM148.729 133.787C143.202 132.71 139.428 134.496 138.639 138.545C137.783 142.938 140.828 144.788 146.034 146.369C152.255 148.254 152.553 149.325 152.3 150.62C151.866 152.847 149.943 153.46 145.861 152.665C140.725 151.664 139.853 150.105 139.995 147.401C140.002 147.261 139.96 147.124 139.877 147.015C139.794 146.906 139.675 146.833 139.542 146.808L137.023 146.318C136.878 146.289 136.727 146.322 136.604 146.408C136.481 146.495 136.395 146.627 136.366 146.778C135.707 150.159 136.699 154.534 145.175 156.185C151.307 157.38 155.312 155.555 156.164 151.182C157.008 146.85 154.401 145.144 148.626 143.157C142.749 141.171 142.227 140.628 142.511 139.171C142.747 137.956 143.586 136.46 148.039 137.327C152.003 138.1 153.314 139.28 153.379 142.171C153.386 142.446 153.562 142.69 153.835 142.743L156.354 143.234C156.511 143.265 156.663 143.21 156.804 143.112C156.869 143.063 156.922 143 156.961 142.928C157 142.855 157.022 142.775 157.028 142.693C157.568 137.839 154.939 134.997 148.729 133.787Z" fill="#FDFCFF"/>
</g>
<defs>
<filter id="filter0_ddddd_1_1193" x="0.172104" y="0.656082" width="282.788" height="284.445" filterUnits="userSpaceOnUse" color-interpolation-filters="sRGB">
<feFlood flood-opacity="0" result="BackgroundImageFix"/>
<feColorMatrix in="SourceAlpha" type="matrix" values="0 0 0 0 0 0 0 0 0 0 0 0 0 0 0 0 0 0 127 0" result="hardAlpha"/>
<feOffset/>
<feGaussianBlur stdDeviation="2.41313"/>
<feColorMatrix type="matrix" values="0 0 0 0 0.792157 0 0 0 0 0.0862745 0 0 0 0 0.662745 0 0 0 1 0"/>
<feBlend mode="normal" in2="BackgroundImageFix" result="effect1_dropShadow_1_1193"/>
<feColorMatrix in="SourceAlpha" type="matrix" values="0 0 0 0 0 0 0 0 0 0 0 0 0 0 0 0 0 0 127 0" result="hardAlpha"/>
<feOffset/>
<feGaussianBlur stdDeviation="4.82625"/>
<feColorMatrix type="matrix" values="0 0 0 0 0.792157 0 0 0 0 0.0862745 0 0 0 0 0.662745 0 0 0 1 0"/>
<feBlend mode="normal" in2="effect1_dropShadow_1_1193" result="effect2_dropShadow_1_1193"/>
<feColorMatrix in="SourceAlpha" type="matrix" values="0 0 0 0 0 0 0 0 0 0 0 0 0 0 0 0 0 0 127 0" result="hardAlpha"/>
<feOffset/>
<feGaussianBlur stdDeviation="16.8919"/>
<feColorMatrix type="matrix" values="0 0 0 0 0.792157 0 0 0 0 0.0862745 0 0 0 0 0.662745 0 0 0 1 0"/>
<feBlend mode="normal" in2="effect2_dropShadow_1_1193" result="effect3_dropShadow_1_1193"/>
<feColorMatrix in="SourceAlpha" type="matrix" values="0 0 0 0 0 0 0 0 0 0 0 0 0 0 0 0 0 0 127 0" result="hardAlpha"/>
<feOffset/>
<feGaussianBlur stdDeviation="33.7837"/>
<feColorMatrix type="matrix" values="0 0 0 0 0.792157 0 0 0 0 0.0862745 0 0 0 0 0.662745 0 0 0 1 0"/>
<feBlend mode="normal" in2="effect3_dropShadow_1_1193" result="effect4_dropShadow_1_1193"/>
<feColorMatrix in="SourceAlpha" type="matrix" values="0 0 0 0 0 0 0 0 0 0 0 0 0 0 0 0 0 0 127 0" result="hardAlpha"/>
<feOffset/>
<feGaussianBlur stdDeviation="57.915"/>
<feColorMatrix type="matrix" values="0 0 0 0 0.792157 0 0 0 0 0.0862745 0 0 0 0 0.662745 0 0 0 1 0"/>
<feBlend mode="normal" in2="effect4_dropShadow_1_1193" result="effect5_dropShadow_1_1193"/>
<feBlend mode="normal" in="SourceGraphic" in2="effect5_dropShadow_1_1193" result="shape"/>
</filter>
</defs>
</svg>
