<svg width="24" height="24" viewBox="0 0 24 24" fill="none" xmlns="http://www.w3.org/2000/svg">
<path d="M11.772 0.84668C5.38368 0.84668 0.205078 6.02528 0.205078 12.4136C0.205078 18.8019 5.38368 23.9805 11.772 23.9805C18.1603 23.9805 23.3389 18.8019 23.3389 12.4136C23.3389 6.02528 18.1603 0.84668 11.772 0.84668ZM8.9405 17.2078H6.5982V9.67006H8.9405V17.2078ZM7.75489 8.7447C7.01509 8.7447 6.53675 8.22058 6.53675 7.57235C6.53675 6.91087 7.02955 6.40241 7.78501 6.40241C8.54048 6.40241 9.00315 6.91087 9.01761 7.57235C9.01761 8.22058 8.54048 8.7447 7.75489 8.7447ZM17.4952 17.2078H15.1529V13.0305C15.1529 12.0581 14.8131 11.3979 13.9661 11.3979C13.3191 11.3979 12.9347 11.8449 12.7648 12.275C12.7022 12.428 12.6865 12.6449 12.6865 12.8606V17.2066H10.343V12.0738C10.343 11.1328 10.3129 10.346 10.2815 9.66885H12.3166L12.4238 10.7159H12.4708C12.7793 10.2243 13.5347 9.49896 14.7987 9.49896C16.3397 9.49896 17.4952 10.5316 17.4952 12.7509V17.2078Z" fill="white"/>
</svg>
