<svg width="28" height="28" viewBox="0 0 28 28" fill="none" xmlns="http://www.w3.org/2000/svg">
<mask id="mask0_852_1519" style="mask-type:alpha" maskUnits="userSpaceOnUse" x="0" y="0" width="28" height="28">
<path d="M0.175781 0H27.3441V27.1683H0.175781V0Z" fill="white"/>
</mask>
<g mask="url(#mask0_852_1519)">
<path d="M26.7788 7.36701C26.625 6.81825 26.3253 6.32142 25.9117 5.92935C25.4864 5.52523 24.9651 5.23615 24.3971 5.0894C22.2711 4.52905 13.7539 4.52905 13.7539 4.52905C10.2031 4.48865 6.65322 4.66634 3.12425 5.0611C2.55619 5.21869 2.03589 5.51423 1.60961 5.92143C1.19076 6.32443 0.887385 6.82138 0.728903 7.36588C0.348199 9.4168 0.163226 11.4993 0.17648 13.5852C0.162896 15.6692 0.347414 17.751 0.728903 19.8045C0.883989 20.3467 1.18624 20.8414 1.60621 21.241C2.02619 21.6406 2.54918 21.9292 3.12425 22.0821C5.27847 22.6413 13.7539 22.6413 13.7539 22.6413C17.3091 22.6817 20.8635 22.5041 24.3971 22.1092C24.9651 21.9625 25.4864 21.6734 25.9117 21.2693C26.3252 20.8773 26.6245 20.3804 26.7777 19.8316C27.1683 17.7815 27.3583 15.6982 27.3448 13.6112C27.3742 11.5154 27.1845 9.42226 26.7788 7.36588V7.36701ZM11.0461 17.4612V9.71028L18.1325 13.5863L11.0461 17.4612Z" fill="white"/>
</g>
</svg>
